{"title":"Jean-Marie Straub - O somma luce (2010)","uid":6075800,"size":260688389,"categoryP":"video","categoryS":"movies","magnet":"?xt=urn:btih:24cb490e5e11d8ec4ce51f1c777cec509f49f911&amp;dn=Jean-Marie+Straub+-+O+somma+luce+%282010%29&amp;tr=udp%3A%2F%2Ftracker.openbittorrent.com%3A80&amp;tr=udp%3A%2F%2Fopen.demonii.com%3A1337&amp;tr=udp%3A%2F%2Ftracker.coppersurfer.tk%3A6969&amp;tr=udp%3A%2F%2Fexodus.desync.com%3A6969","seeders":4,"leechers":0,"uploader":"mfccorrea","files":4,"time":1293831201,"description":"This is one of Straub's latest movies, shot on video.  Giorgio Passerone recites the second half of Canto XXXIII from Dante's Paradiso, preceded by seven minutes of black screen and VarÃƒÂ¨se's &quot;DÃƒÂ©serts.&quot; \n\n   General\n      Complete name : O somma luce.avi\n      Format : AVI\n      Format/Info : Audio Video Interleave\n      File size : 249 MiB\n      Duration : 17mn 49s\n      Overall bit rate : 1 950 Kbps\n      Writing application : FairUse Wizard - http://fairusewizard.com\n      Writing library : The best and REALLY easy backup tool\n   Video #0\n      ID : 0\n      Format : MPEG-4 Visual\n      Format profile : AdvancedSimple@L5\n      Format settings, BVOP : Yes\n      Format settings, QPel : No\n      Format settings, GMC : No warppoints\n      Format settings, Matrix : Default (MPEG)\n      Muxing mode : Packed bitstream\n      Codec ID : XVID\n      Codec ID/Hint : XviD\n      Duration : 17mn 49s\n      Bit rate : 1 748 Kbps\n      Width : 688 pixels\n      Height : 384 pixels\n      Display aspect ratio : 16:9\n      Frame rate : 25.000 fps\n      Resolution : 24 bits\n      Colorimetry : 4:2:0\n      Scan type : Progressive\n      Bits/(Pixel*Frame) : 0.265\n      Stream size : 223 MiB (90%)\n      Writing library : XviD 1.2.1 (UTC 2008-12-04)\n   Audio #1\n      ID : 1\n      Format : AC-3\n      Format/Info : Audio Coding 3\n      Codec ID : 2000\n      Duration : 17mn 49s\n      Bit rate mode : Constant\n      Bit rate : 192 Kbps\n      Channel(s) : 2 channels\n      Channel positions : L R\n      Sampling rate : 48.0 KHz\n      Stream size : 24.5 MiB (10%)\n      Alignment : Split accross interleaves\n      Interleave, duration : 40 ms (1.00 video frame)\n      Interleave, preload duration : 500 ms\n &lt;a href=&quot;\nhttp://www.imdb.com/title/tt1720181/&quot; rel=&quot;nofollow&quot; target=&quot;_NEW&quot;&gt;\nhttp://www.imdb.com/title/tt1720181/&lt;/a&gt;\n\nItalian audio; Italian, English and Portuguese subtitles\n\nMy rip of a DVD posted at KG by tag\n\nJean-Marie Straub - O somma luce (2010)","torrent":{"xt":"urn:btih:24cb490e5e11d8ec4ce51f1c777cec509f49f911","amp;dn":"Jean-Marie+Straub+-+O+somma+luce+%282010%29","amp;tr":["udp%3A%2F%2Ftracker.openbittorrent.com%3A80","udp%3A%2F%2Fopen.demonii.com%3A1337","udp%3A%2F%2Ftracker.coppersurfer.tk%3A6969","udp%3A%2F%2Fexodus.desync.com%3A6969"],"infoHash":"24cb490e5e11d8ec4ce51f1c777cec509f49f911","infoHashBuffer":{"type":"Buffer","data":[36,203,73,14,94,17,216,236,76,229,31,28,119,124,236,80,159,73,249,17]},"announce":[],"urlList":[]}}